<svg width="38" height="58" viewBox="0 0 38 58" fill="none" xmlns="http://www.w3.org/2000/svg">
<path d="M3.12012 2.64075C4.62432 1.13655 6.66444 0.291504 8.7917 0.291504H16.8125V16.3332H8.7917C6.66445 16.3332 4.62432 15.4881 3.12012 13.9839C1.61592 12.4797 0.770874 10.4396 0.770874 8.31233C0.770874 6.18507 1.61592 4.14495 3.12012 2.64075Z" fill="white"/>
<path d="M29.2084 16.3332H21.1875V0.291504H29.2084C30.2617 0.291504 31.3047 0.498969 32.2778 0.902053C33.2509 1.30514 34.1351 1.89595 34.88 2.64075C35.6248 3.38555 36.2156 4.26976 36.6186 5.24289C37.0217 6.21603 37.2292 7.25902 37.2292 8.31233C37.2292 9.36564 37.0217 10.4086 36.6186 11.3818C36.2156 12.3549 35.6248 13.2391 34.88 13.9839C34.1351 14.7287 33.2509 15.3195 32.2778 15.7226C31.3047 16.1257 30.2617 16.3332 29.2084 16.3332Z" fill="white"/>
<path d="M29.2084 20.7082C28.1551 20.7082 27.1121 20.9156 26.1389 21.3187C25.1658 21.7218 24.2816 22.3126 23.5368 23.0574C22.792 23.8022 22.2012 24.6864 21.7981 25.6596C21.395 26.6327 21.1875 27.6757 21.1875 28.729C21.1875 29.7823 21.395 30.8253 21.7981 31.7984C22.2012 32.7716 22.792 33.6558 23.5368 34.4006C24.2816 35.1454 25.1658 35.7362 26.1389 36.1393C27.1121 36.5424 28.1551 36.7498 29.2084 36.7498C30.2617 36.7498 31.3047 36.5424 32.2778 36.1393C33.2509 35.7362 34.1351 35.1454 34.88 34.4006C35.6248 33.6558 36.2156 32.7716 36.6186 31.7984C37.0217 30.8253 37.2292 29.7823 37.2292 28.729C37.2292 27.6757 37.0217 26.6327 36.6186 25.6596C36.2156 24.6864 35.6248 23.8022 34.88 23.0574C34.1351 22.3126 33.2509 21.7218 32.2778 21.3187C31.3047 20.9156 30.2617 20.7082 29.2084 20.7082Z" fill="white"/>
<path d="M3.12012 43.4741C4.62432 41.9699 6.66444 41.1248 8.7917 41.1248H16.8125V49.1457C16.8125 51.2729 15.9675 53.3131 14.4633 54.8173C12.9591 56.3214 10.919 57.1665 8.7917 57.1665C6.66444 57.1665 4.62432 56.3214 3.12012 54.8173C1.61592 53.3131 0.770874 51.2729 0.770874 49.1457C0.770874 47.0184 1.61592 44.9783 3.12012 43.4741Z" fill="white"/>
<path d="M8.7917 20.7082C6.66445 20.7082 4.62432 21.5532 3.12012 23.0574C1.61592 24.5616 0.770874 26.6017 0.770874 28.729C0.770874 30.8563 1.61592 32.8964 3.12012 34.4006C4.62432 35.9048 6.66445 36.7498 8.7917 36.7498H16.8125V20.7082H8.7917Z" fill="white"/>
</svg>
